<?xml version="1.0" encoding="UTF-8" standalone="no"?><svg xmlns="http://www.w3.org/2000/svg" width="81.027" height="51.125" viewBox="0 0 81.027 51.125">
  <g id="Group_98" data-name="Group 98" transform="translate(-1391.401 -658.904)" opacity="0.5">
    <path id="Path_193" data-name="Path 193" d="M1460.853,676.295v16.373a5.789,5.789,0,0,1-11.578,0V676.295h0v-.026a17.361,17.361,0,0,0-28.937-12.943,17.364,17.364,0,1,0-17.362,29.315V676.269a5.788,5.788,0,0,1,11.575,0v16.373a17.369,17.369,0,0,0,5.786-3.433,17.383,17.383,0,0,0,5.789,3.433V676.269a5.788,5.788,0,0,1,11.576,0v16.373h0l0,.027a17.363,17.363,0,1,0,23.151-16.373Z" transform="translate(0 0)" fill="#070606"/>
  </g>
</svg>
