<?xml version="1.0" encoding="UTF-8" standalone="no"?><svg xmlns="http://www.w3.org/2000/svg" xmlns:xlink="http://www.w3.org/1999/xlink" width="34" height="34" viewBox="0 0 34 34">
  <defs>
    <clipPath id="clip-path">
      <rect id="Rectangle_63" data-name="Rectangle 63" width="34" height="34" transform="translate(-0.455)" fill="#fff" stroke="#707070" stroke-width="1"/>
    </clipPath>
  </defs>
  <g id="Mask_Group_14" data-name="Mask Group 14" transform="translate(0.455)" clip-path="url(#clip-path)">
    <path id="iconmonstr-help-5" d="M16.773,1.875C7.914,1.875,0,7.782,0,15.862a12.316,12.316,0,0,0,2.861,7.862c.077,2.558-1.43,6.228-2.786,8.9,3.637-.657,8.807-2.108,11.151-3.545,12.909,3.141,22.319-4.759,22.319-13.218,0-8.124-7.968-13.987-16.773-13.987Zm0,20.966A1.432,1.432,0,1,1,18.2,21.408,1.433,1.433,0,0,1,16.773,22.841Zm2.245-6.79a3.033,3.033,0,0,0-1.071,2.495h-2.3a4.214,4.214,0,0,1,1.64-3.972c.656-.623,1.174-1.117,1.1-2.087a1.514,1.514,0,0,0-1.561-1.4c-.812,0-1.763.6-1.763,2.3h-2.3c0-2.748,1.614-4.524,4.111-4.524A4.041,4.041,0,0,1,19.8,9.958a3.58,3.58,0,0,1,.978,2.632,5.123,5.123,0,0,1-1.76,3.461Z" transform="translate(0 -0.477)"/>
  </g>
</svg>
