<?xml version="1.0" encoding="UTF-8" standalone="no"?><svg xmlns="http://www.w3.org/2000/svg" xmlns:xlink="http://www.w3.org/1999/xlink" width="45" height="45" viewBox="0 0 45 45">
  <defs>
    <clipPath id="clip-path">
      <rect id="Rectangle_59" data-name="Rectangle 59" width="45" height="45" transform="translate(1294 3486)" fill="#fff" stroke="#707070" stroke-width="1"/>
    </clipPath>
  </defs>
  <g id="Mask_Group_12" data-name="Mask Group 12" transform="translate(-1294 -3486)" clip-path="url(#clip-path)">
    <path id="iconmonstr-instagram-14" d="M27.8,11.816c-1.384-.064-1.8-.075-5.3-.075s-3.919.013-5.3.075c-3.561.163-5.218,1.849-5.381,5.381-.062,1.384-.077,1.8-.077,5.3s.015,3.919.077,5.3c.163,3.523,1.813,5.218,5.381,5.381,1.382.062,1.8.077,5.3.077s3.921-.013,5.3-.077c3.561-.161,5.216-1.853,5.381-5.381.062-1.384.075-1.8.075-5.3s-.013-3.919-.075-5.3c-.165-3.531-1.824-5.218-5.381-5.381ZM22.5,29.241A6.74,6.74,0,1,1,29.241,22.5,6.741,6.741,0,0,1,22.5,29.241ZM29.507,17.07a1.575,1.575,0,1,1,1.575-1.575A1.575,1.575,0,0,1,29.507,17.07ZM26.874,22.5A4.374,4.374,0,1,1,22.5,18.126,4.374,4.374,0,0,1,26.874,22.5ZM22.5,0A22.5,22.5,0,1,0,45,22.5,22.5,22.5,0,0,0,22.5,0ZM35.546,27.911c-.216,4.772-2.872,7.416-7.633,7.635-1.4.064-1.849.079-5.413.079s-4.011-.015-5.411-.079c-4.77-.219-7.416-2.867-7.635-7.635-.064-1.4-.079-1.847-.079-5.411s.015-4.011.079-5.411c.219-4.77,2.867-7.416,7.635-7.633,1.4-.066,1.847-.081,5.411-.081s4.013.015,5.413.081c4.772.219,7.419,2.873,7.633,7.633.064,1.4.079,1.847.079,5.411S35.61,26.513,35.546,27.911Z" transform="translate(1294 3486)"/>
  </g>
</svg>
