<?xml version="1.0" encoding="UTF-8" standalone="no"?><svg xmlns="http://www.w3.org/2000/svg" xmlns:xlink="http://www.w3.org/1999/xlink" width="34" height="34" viewBox="0 0 34 34">
  <defs>
    <clipPath id="clip-path">
      <rect id="Rectangle_62" data-name="Rectangle 62" width="34" height="34" fill="#fff" stroke="#707070" stroke-width="1"/>
    </clipPath>
  </defs>
  <g id="Mask_Group_13" data-name="Mask Group 13" clip-path="url(#clip-path)">
    <path id="iconmonstr-globe-1" d="M16.773,0A16.773,16.773,0,1,0,33.545,16.773,16.773,16.773,0,0,0,16.773,0ZM30.75,16.773a13.954,13.954,0,0,1-.282,2.8H25.082a29.874,29.874,0,0,0,0-5.591h5.385A13.954,13.954,0,0,1,30.75,16.773Zm-1.175-5.591H24.682A23.508,23.508,0,0,0,21.96,3.8,14.044,14.044,0,0,1,29.575,11.182Zm-7.763,0H18.17V3.273A18.477,18.477,0,0,1,21.812,11.182ZM15.375,3.273v7.908H11.734A18.477,18.477,0,0,1,15.375,3.273Zm0,10.7v5.591h-4.1a25.606,25.606,0,0,1,0-5.591Zm0,8.386v7.908a18.477,18.477,0,0,1-3.641-7.908Zm2.8,7.908V22.364h3.641A18.477,18.477,0,0,1,18.17,30.272Zm0-10.7V13.977h4.1a25.606,25.606,0,0,1,0,5.591ZM11.586,3.8a23.508,23.508,0,0,0-2.723,7.377H3.971A14.044,14.044,0,0,1,11.586,3.8ZM3.078,13.977H8.463a29.874,29.874,0,0,0,0,5.591H3.078a13.98,13.98,0,0,1,0-5.591Zm.893,8.386H8.863a23.508,23.508,0,0,0,2.723,7.377A14.044,14.044,0,0,1,3.971,22.364ZM21.96,29.741a23.508,23.508,0,0,0,2.723-7.377h4.892a14.044,14.044,0,0,1-7.615,7.377Z" transform="translate(0)"/>
  </g>
</svg>
